<svg xmlns:xlink="http://www.w3.org/1999/xlink" xmlns="http://www.w3.org/2000/svg" viewBox="0 0 24 24" width="20" height="20" fill="currentColor" class="ml-1"><path d="M15.93 1.5A2.07 2.07 0 0 1 18 3.57v16.86a2.07 2.07 0 0 1-2.07 2.07H8.07A2.07 2.07 0 0 1 6 20.43V3.57A2.07 2.07 0 0 1 8.07 1.5h7.86Zm0 1.5h-.933v.304c.087.92-.54 1.747-1.434 1.921l-.119.019-.094.006h-2.7l-.094-.006c-.915-.116-1.584-.907-1.563-1.753L9 3.375V3h-.93a.57.57 0 0 0-.565.493L7.5 3.57v16.86c0 .315.255.57.57.57h7.86a.57.57 0 0 0 .57-.57V3.57a.57.57 0 0 0-.57-.57ZM13.5 18.765a.75.75 0 0 1 .088 1.495l-.088.005h-3a.75.75 0 0 1-.088-1.495l.088-.005h3ZM13.5 3h-3.003v.446a.285.285 0 0 0 .192.297l.03.007h2.559l.033-.007c.105-.036.18-.136.19-.288L13.5 3Z" fill="#FFFFFF"></path></svg>